<?xml version="1.0" standalone="no"?>
<!DOCTYPE svg PUBLIC "-//W3C//DTD SVG 20010904//EN"
 "http://www.w3.org/TR/2001/REC-SVG-20010904/DTD/svg10.dtd">
<svg version="1.0" xmlns="http://www.w3.org/2000/svg"
 width="25" height="40" viewBox="0 0 266.000000 237.000000"
 preserveAspectRatio="xMidYMid meet">
z
<g transform="translate(0.000000,237.000000) scale(0.100000,-0.100000)"
fill="#000000" stroke="none">
<path d="M888 2204 c-61 -32 -58 17 -58 -1034 0 -1043 -2 -996 54 -1034 43
-28 93 -21 132 18 l34 34 0 436 0 436 381 0 381 0 34 34 c38 38 44 77 19 126
-31 59 -38 60 -445 60 l-370 0 0 425 c0 467 0 469 -60 500 -36 19 -67 19 -102
-1z"/>
<path d="M1388 2204 c-30 -16 -58 -61 -58 -94 0 -31 25 -75 54 -94 22 -14 72
-16 441 -16 l415 0 0 -135 c0 -147 8 -178 54 -209 43 -28 93 -21 132 18 l34
34 0 222 0 222 -34 34 -34 34 -489 0 c-412 -1 -492 -3 -515 -16z"/>
<path d="M2298 684 c-49 -26 -58 -59 -58 -209 l0 -135 -410 0 c-451 0 -454 0
-485 -60 -19 -36 -19 -63 -1 -99 33 -63 17 -61 550 -61 328 0 493 4 509 11 52
23 57 50 57 274 0 227 -5 252 -60 280 -36 19 -67 19 -102 -1z"/>
</g>
</svg>